PathFileType	4	(X/Y/Z)	C:\Users\WrightLab\Desktop\Jo\P5V210.trc
DataRate	CameraRate	NumFrames	NumMarkers	Units	OrigDataRate	OrigDataStartFrame	OrigNumFrames
100.00	100.00	       22	19	mm	100.00	269	       716
Frame#	Time	Headset_Front			Headset_Back			Headset_Left			Headset_Right			Left_Shoulder			Right_Shoulder			Sternum			C7			Left Elbow			Right Elbow			Left Wrist			Right Wrist			Left ASIS			Right ASIS			S2			Left Knee			Right Knee			Left Ankle			Right Ankle			
		X1	Y1	Z1	X2	Y2	Z2	X3	Y3	Z3	X4	Y4	Z4	X5	Y5	Z5	X6	Y6	Z6	X7	Y7	Z7	X8	Y8	Z8	X9	Y9	Z9	X10	Y10	Z10	X11	Y11	Z11	X12	Y12	Z12	X13	Y13	Z13	X14	Y14	Z14	X15	Y15	Z15	X16	Y16	Z16	X17	Y17	Z17	X18	Y18	Z18	X19	Y19	Z19	

269	2.680	-267.46136	1492.87573	-828.07007							-374.14725	1568.62683	-912.34491							-249.96317	1275.67395	-998.37006	-284.58737	1484.00586	-1197.14929				-558.87274	1130.01196	-1097.77698	-15.29818	935.56329	-1027.49609	-522.95575	977.65851	-916.13354	-111.41471	888.26343	-1020.77252	-381.76093	902.88647	-989.63031	-249.66638	937.15973	-1281.83508	-147.78558	450.20721	-1120.86755	-384.02249	499.18610	-934.72748	28.93928	1172.42737	-1107.58496	-386.90891	76.77667	-988.78516	
270	2.690	-271.33896	1492.86719	-821.31689							-376.24915	1568.41919	-906.45142							-252.38757	1276.69836	-991.54932	-287.14923	1484.01331	-1191.34863				-561.07904	1129.72021	-1089.23035	-16.48652	935.23566	-1020.03882	-526.17078	979.35297	-906.79584	-114.03515	889.27777	-1011.87756	-384.53336	903.25171	-982.37903	-251.81418	936.94269	-1273.44177	-147.28821	450.12033	-1109.74536	-386.30786	498.30490	-930.45483	26.00884	1173.13550	-1103.29712	-386.52756	76.09234	-988.48883	
271	2.700				-123.21222	1545.00952	-694.76843				-378.13577	1568.55896	-899.76819							-253.97119	1276.41638	-984.87970	-289.50555	1484.47522	-1185.80273				-563.73431	1130.09888	-1080.45435	-17.86360	935.73114	-1015.34308	-528.86560	980.22278	-897.67035	-115.93257	890.00555	-1002.68103	-385.98804	904.99518	-971.63147	-254.01183	936.88855	-1265.53369	-147.94101	449.82510	-1097.96729	-387.92874	497.35086	-926.47705	24.71464	1173.41870	-1098.07788	-386.69388	75.90603	-988.33331	
272	2.710				-125.26939	1545.41711	-691.14465				-380.11179	1568.79333	-893.34552							-255.10802	1276.93591	-978.10480	-291.74896	1484.54004	-1178.80432				-566.20215	1130.64026	-1071.32007	-19.19008	936.22876	-1009.23999	-530.38324	981.58838	-887.96484	-118.14130	890.50763	-995.56653	-388.44449	904.79413	-966.51080	-256.09326	936.85968	-1257.55811	-148.49962	449.59766	-1083.58032	-390.01633	497.07571	-922.53894	21.82177	1174.84351	-1094.23926	-386.64737	75.83763	-988.31232	
273	2.720				-127.09132	1545.41113	-683.10541				-382.01578	1568.65564	-886.33295							-257.94608	1278.97412	-971.74597	-294.06421	1484.92261	-1172.81946				-569.66626	1132.11523	-1063.90894	-20.50286	937.03998	-1002.54706	-533.34265	983.54749	-878.53229	-121.01346	891.23395	-987.94141	-391.04120	905.47510	-957.45374	-258.02100	937.11938	-1249.57556	-148.00391	449.31732	-1070.48218	-392.44293	495.34814	-918.95343	20.96650	1173.57178	-1083.63892	-386.64423	76.09731	-987.41345	
274	2.730				-129.20410	1545.99219	-677.50568				-383.91763	1569.21887	-880.40363							-259.21783	1279.77515	-965.35950	-296.15219	1485.85339	-1166.62036				-571.06787	1132.55457	-1053.69800	-22.02762	937.61279	-997.88153	-535.32672	985.64996	-868.88348	-123.63435	891.44806	-979.82635	-392.00681	906.17358	-950.88800	-259.72534	937.81439	-1242.01538	-147.30701	448.53683	-1054.27698	-396.30557	493.90448	-916.82556				-386.81119	75.32850	-986.61438	
275	2.740				-130.85268	1545.93799	-670.17059				-385.65170	1569.44592	-874.26318							-261.98291	1281.06824	-958.87500	-298.47461	1486.57520	-1161.15247				-572.98993	1133.55859	-1044.16113	-23.40249	938.57257	-991.27338	-538.50891	987.35913	-859.91870	-125.55136	893.10992	-972.05115	-394.58176	908.22058	-943.65802	-261.51425	938.66846	-1234.90137	-148.45453	447.85208	-1038.16296	-399.36270	493.08453	-915.47577	16.88148	1175.59570	-1073.31323	-386.93698	75.30539	-986.28729	
276	2.750				-132.72499	1546.31091	-665.27386				-387.25424	1569.85535	-867.16180							-263.39072	1282.54346	-953.18793	-300.59546	1487.24084	-1154.76489				-574.88629	1135.24854	-1036.17395	-24.99157	939.30267	-985.71869	-540.12897	989.07623	-849.08301	-126.98878	895.07428	-964.97504	-396.06058	909.26160	-935.59729	-263.00708	938.67493	-1226.48303	-146.84261	447.55124	-1020.88434	-403.15219	490.43127	-912.84076				-386.96356	75.31781	-986.29413	
277	2.760	-475.32175	1414.44946	-995.52924	-134.34985	1546.42090	-658.56866				-389.16940	1569.86536	-861.50085							-265.33890	1283.56604	-946.75189	-302.73825	1488.24512	-1148.93921				-577.35712	1136.74292	-1026.79272	-26.55150	940.48053	-980.17682	-543.05255	991.79584	-839.20709	-129.38669	895.75720	-958.09784	-398.41034	909.32605	-928.41003	-264.66022	939.49634	-1219.59717	-147.97975	447.13306	-1003.79193	-407.22003	490.30664	-912.07202				-386.98419	75.30525	-986.29517	
278	2.770	-475.29581	1415.26416	-988.86249	-136.19931	1546.91052	-653.28418				-390.68222	1569.89636	-854.86047							-266.13620	1284.24744	-940.53638	-304.90683	1489.21997	-1143.14807				-579.99963	1138.61829	-1017.39984	-27.58796	941.21179	-974.42938	-545.20428	994.17957	-829.82104	-130.44023	896.60767	-950.77881	-401.89865	910.66187	-924.45770	-266.12695	940.39612	-1212.05469	-148.53094	447.03381	-985.06427	-411.11893	488.24170	-911.98352	-126.38158	148.08353	-1340.96118	-387.08441	75.33160	-986.31696	
279	2.780				-137.58076	1546.77869	-647.60767				-392.18268	1569.97388	-848.10754							-267.74002	1284.97595	-934.75891	-306.95715	1489.85168	-1136.11926				-582.07922	1139.85754	-1008.75873	-29.18131	942.38031	-967.79803	-547.60938	997.28333	-819.76819	-131.23305	897.39166	-943.75415	-402.62921	912.58502	-913.04364	-267.50455	941.55170	-1205.16260	-148.27629	448.20755	-967.04095	-415.28107	486.35031	-910.54724				-388.10977	75.19798	-986.68378	
280	2.790				-139.15051	1546.98584	-641.36279				-393.83234	1570.22888	-842.52454							-268.87262	1285.60449	-929.14691	-309.12933	1490.66699	-1129.99231				-585.05017	1141.18298	-998.39667	-30.32903	943.22675	-961.23523	-551.14368	999.80109	-809.25519	-132.65434	898.00183	-936.90240	-406.04507	912.46558	-906.76740	-269.13931	941.81708	-1197.94250	-149.02776	449.47394	-949.08130	-418.75714	484.40747	-911.11066	-129.26340	167.73367	-1316.40015	-388.40994	75.06731	-986.56134	
281	2.800				-140.54652	1546.70032	-634.61829				-395.24469	1570.50903	-836.30969							-269.33002	1285.72168	-923.05634	-311.18369	1491.62585	-1123.88977				-588.14587	1143.10791	-988.75366	-31.53597	944.54889	-955.56329	-554.03302	1002.13696	-798.24872	-133.15926	899.09174	-931.42181	-408.87762	913.30933	-898.27386	-270.77161	942.34424	-1191.38159	-147.40009	452.09796	-932.20764	-424.02380	483.12479	-910.67950	-130.21565	177.26814	-1305.47266	-389.07663	75.25619	-986.42926	
282	2.810	-481.63092	1417.91711	-960.68103	-142.27853	1547.09155	-629.61151				-396.70502	1570.11511	-829.43408							-270.61823	1286.74194	-917.34204	-313.22672	1492.44043	-1118.05371				-590.61951	1144.37292	-979.55005	-32.61306	945.94226	-949.71063	-557.03369	1003.57513	-787.59723	-132.88834	899.68890	-925.09961	-411.66577	915.97687	-889.96313	-272.31042	942.98987	-1184.78638	-146.81157	454.58990	-915.90552	-427.98651	481.46265	-910.89008	-131.59355	184.11411	-1291.79199	-389.36514	75.22070	-986.21466	
283	2.820	-482.90646	1418.90637	-953.98865	-143.44453	1546.58142	-622.67657				-398.13489	1570.21497	-823.46295							-271.79239	1287.51868	-911.38892	-315.08670	1493.12024	-1111.19543				-593.42560	1146.06006	-970.54895	-33.43726	946.65137	-943.90491	-559.27588	1006.93127	-778.15991	-131.70982	901.26495	-917.17798	-413.37659	915.77686	-880.27405	-273.73764	943.85260	-1178.44849	-145.34869	457.52893	-899.34125	-432.45483	480.60608	-911.38293	-135.50764	188.89552	-1283.99280	-389.40314	75.20488	-986.21790	
284	2.830	-482.84869	1418.85645	-947.14886	-144.71417	1546.54395	-617.18170				-399.32385	1570.24927	-816.42621							-272.01413	1287.81885	-905.17297	-316.95450	1493.75110	-1104.85193				-596.19836	1147.15515	-959.67816	-34.15158	948.34747	-937.38239	-562.69281	1009.52704	-766.16058	-131.81700	901.16058	-912.06659	-416.90915	916.45996	-875.95563	-275.22830	944.41187	-1172.27112	-142.50255	461.54196	-884.87164	-435.92950	479.53934	-912.04889	-134.08385	197.33904	-1262.55322	-389.48730	75.25600	-986.24182	
285	2.840	-484.10971	1419.31165	-939.99445	-145.81760	1545.99780	-609.18011				-400.70731	1570.23816	-810.23022							-272.97580	1288.09155	-899.57886	-318.56876	1494.85657	-1098.45874				-598.84656	1148.88245	-949.36786	-35.44567	949.12592	-932.62793	-565.73303	1012.50183	-755.29822	-131.96077	901.74664	-907.16016	-420.29779	917.32483	-869.83173	-276.53784	945.32031	-1166.23486	-139.13837	465.74802	-871.68396	-439.62473	479.48096	-911.23547	-137.22597	201.40327	-1246.75378	-389.56509	75.28764	-986.26086	
286	2.850	-485.29318	1419.95776	-933.17633	-147.22070	1546.17944	-604.69073				-401.93329	1570.22644	-803.99347							-273.37131	1289.40857	-893.25085	-320.22076	1495.72864	-1092.56836				-600.73798	1150.16284	-939.05829	-36.24945	950.61011	-926.25775	-567.75635	1015.05475	-743.91113	-132.05090	902.61462	-901.59003	-421.51370	919.06982	-863.12579	-277.94363	945.86554	-1160.24426	-137.01578	469.30118	-858.64417	-443.80746	481.27374	-910.50085	-137.81662	205.47693	-1229.69141	-390.02829	76.20787	-986.47186	
287	2.860	-484.94489	1420.27539	-925.83356	-148.33177	1545.84375	-595.55365				-403.14465	1570.22070	-797.20758							-273.09860	1289.54004	-886.56891	-321.68875	1496.80457	-1086.45227	-2.06843	1187.38257	-1009.73535	-603.05261	1152.37781	-928.75348	-36.68880	951.35175	-920.57080	-570.61133	1018.46783	-733.07587	-131.35100	903.06299	-895.81409	-424.29782	918.53198	-855.84943	-278.77826	947.16156	-1154.50879	-133.84154	472.70007	-845.30432	-445.22379	481.24316	-908.30774	-139.29286	205.80417	-1212.90369	-390.02310	76.21023	-986.47150	
288	2.870	-487.13617	1421.68726	-919.60187	-149.59669	1545.88574	-590.83795				-404.22058	1570.23096	-790.63617							-276.98969	1288.75635	-884.24512	-323.06946	1497.72656	-1079.35352	-3.02061	1188.62158	-1005.69019	-604.97766	1154.12280	-917.87500	-37.80949	952.61151	-915.61810	-573.00702	1020.33392	-721.37903	-131.28456	903.39203	-891.14368	-425.68512	918.75641	-849.04602	-279.82135	948.26160	-1149.47107	-130.75784	476.76505	-834.25287	-446.96890	481.08206	-906.76276	-140.81906	205.42969	-1193.35046	-389.95428	76.18215	-986.45459	
289	2.880	-486.58615	1422.21570	-911.70905	-150.59119	1545.84009	-585.93756				-405.32251	1570.06213	-783.36639							-277.85098	1287.95496	-878.99908	-324.62360	1498.26465	-1073.11511	-3.62582	1189.74512	-1000.83008	-607.21179	1156.05530	-907.68542	-37.59205	954.03033	-911.21460	-575.05286	1022.79053	-709.44733	-130.89468	904.14319	-885.00946	-425.44101	919.33850	-841.88037	-280.78397	948.75323	-1143.85913	-127.53282	480.84116	-822.86786	-447.52704	480.92117	-902.92871	-141.05844	204.59802	-1174.38599	-389.92712	76.17591	-986.44885	
290	2.890	-487.75650	1422.94434	-905.33521	-151.75578	1545.99756	-580.81464				-406.33072	1570.05957	-777.15021							-277.39987	1289.82983	-871.03772	-325.87958	1499.26892	-1066.44165	-5.05195	1189.70825	-997.95343	-609.12524	1158.06714	-896.79248	-38.53234	954.60535	-904.67322	-577.91302	1026.14746	-698.42029	-130.27907	904.86609	-880.19666	-426.52399	921.04089	-834.89838	-281.20215	950.18262	-1138.42212	-125.91984	484.41205	-812.80933	-448.27158	480.94202	-900.40411	-142.21384	200.56029	-1154.46777	-389.63370	76.68800	-985.70673	
